<svg width="26" height="26" viewBox="0 0 26 26" fill="none" xmlns="http://www.w3.org/2000/svg">
<circle cx="13" cy="13" r="13" fill="white"/>
<path d="M17.9686 7.28665C17.5671 6.8331 16.9039 6.758 16.4354 7.09525V7.09622C15.9374 7.45368 15.7681 8.11681 16.0467 8.66849L16.0477 8.67142C16.1095 8.79626 16.2104 8.92307 16.3299 9.04251L16.3309 9.04446C17.7674 10.4984 18.3443 12.2737 17.8338 14.3296C17.3464 16.2893 16.0919 17.5915 14.2449 18.1773H14.244C12.4436 18.7454 10.748 18.3828 9.29474 17.1617C8.04155 16.1111 7.39969 14.6963 7.37775 13.0308L7.37872 13.0298C7.36133 11.7846 7.75063 10.6743 8.47443 9.71439L8.62384 9.52493C8.69496 9.43739 8.77457 9.36666 8.83185 9.31595C8.89683 9.25842 8.93474 9.22426 8.96759 9.18802L8.97052 9.18509L9.0838 9.04935C9.3198 8.72689 9.37134 8.36543 9.24493 7.95071L9.24591 7.94974C9.10005 7.48424 8.79098 7.21953 8.32794 7.12552C7.98925 7.05748 7.68254 7.14288 7.38068 7.38528L7.3797 7.38626C6.77752 7.86603 6.35471 8.51602 5.96075 9.2515C5.2988 10.4885 5.00019 11.8239 5.04767 13.2447V13.2456C5.10011 14.8698 5.58599 16.3235 6.49884 17.6118L6.68732 17.8677C7.6695 19.147 8.89599 20.0438 10.3797 20.4966C12.7538 21.2235 14.9593 20.9137 16.9725 19.5044L17.3719 19.2076C18.7439 18.1348 19.6467 16.7089 20.0945 14.9673V14.9663L20.1531 14.7242C20.2797 14.1591 20.3358 13.5797 20.3387 12.9859C20.3079 10.8194 19.5667 8.97622 18.1072 7.44388L18.1082 7.4429C18.065 7.39761 17.9845 7.30417 17.9705 7.2886L17.9686 7.28665Z" fill="#FE724C" stroke="white" stroke-width="0.8"/>
<path d="M13.2485 4.2767C12.8566 4.05148 12.4701 4.05975 12.0854 4.30209L12.0844 4.30307C11.71 4.53718 11.5112 4.87821 11.5112 5.3392V5.34018C11.5053 7.60051 11.5053 8.39453 11.5112 10.6546C11.5134 11.3036 11.9832 11.8165 12.562 11.8744L12.5639 11.8753C13.1378 11.9347 13.6619 11.5787 13.8286 11.0052L13.8569 10.888L13.8725 10.7601C13.8752 10.7139 13.8754 10.6626 13.8754 10.6039C13.8696 9.49358 13.8696 9.11478 13.8696 8.00522C13.8696 6.87918 13.8725 6.48879 13.8696 5.36557C13.8673 4.86467 13.6557 4.51133 13.2485 4.27768V4.2767Z" fill="#FE724C" stroke="white" stroke-width="0.8"/>
</svg>
