<svg width="18" height="20" viewBox="0 0 18 20" fill="none" xmlns="http://www.w3.org/2000/svg">
<path opacity="0.4" d="M12.6414 0H4.60958C1.69625 0 0 1.70583 0 4.62875V14.5283C0 17.4992 1.69625 19.1667 4.60958 19.1667H12.6414C15.6017 19.1667 17.25 17.4992 17.25 14.5283V4.62875C17.25 1.70583 15.6017 0 12.6414 0Z" fill="#9796A1"/>
<path fill-rule="evenodd" clip-rule="evenodd" d="M4.86802 4.4561V4.46568C4.45498 4.46568 4.12052 4.8011 4.12052 5.21318C4.12052 5.62527 4.45498 5.96068 4.86802 5.96068H7.73248C8.14552 5.96068 8.48094 5.62527 8.48094 5.20264C8.48094 4.79152 8.14552 4.4561 7.73248 4.4561H4.86802ZM12.3814 10.2924H4.86802C4.45498 10.2924 4.12052 9.95698 4.12052 9.5449C4.12052 9.13282 4.45498 8.79644 4.86802 8.79644H12.3814C12.7934 8.79644 13.1289 9.13282 13.1289 9.5449C13.1289 9.95698 12.7934 10.2924 12.3814 10.2924ZM12.3815 14.6719H4.86817C4.58067 14.7102 4.30276 14.5665 4.14942 14.3269C3.99609 14.0777 3.99609 13.7615 4.14942 13.5219C4.30276 13.2727 4.58067 13.1385 4.86817 13.1673H12.3815C12.7639 13.2056 13.0523 13.5315 13.0523 13.9244C13.0523 14.3068 12.7639 14.6335 12.3815 14.6719Z" fill="#9796A1"/>
</svg>
